<?xml version="1.0" encoding="UTF-8" standalone="no"?>
<svg width="78px" height="78px" viewBox="0 0 78 78" version="1.1" xmlns="http://www.w3.org/2000/svg" xmlns:xlink="http://www.w3.org/1999/xlink">
    <!-- Generator: Sketch 3.8.3 (29802) - http://www.bohemiancoding.com/sketch -->
    <title>Group 10</title>
    <desc>Created with Sketch.</desc>
    <defs></defs>
    <g id="Desktop" stroke="none" stroke-width="1" fill="none" fill-rule="evenodd">
        <g id="Map-Informations-Pays" transform="translate(-1127.000000, -820.000000)">
            <g id="Group-12" transform="translate(899.000000, 0.000000)">
                <g id="Group-11" transform="translate(72.000000, 812.000000)">
                    <g id="Group-10" transform="translate(156.000000, 8.000000)">
                        <circle id="Oval-71" fill="#091C3E" cx="39" cy="39" r="39"></circle>
                        <polygon id="Star-1" fill="#FFFFFF" points="39 22 36.648859 23.236068 37.097887 20.618034 35.1957739 18.763932 37.8244295 18.381966 39 16 40.1755705 18.381966 42.8042261 18.763932 40.902113 20.618034 41.351141 23.236068"></polygon>
                        <polygon id="Star-1-Copy" fill="#FFFFFF" points="39 60 36.648859 61.236068 37.097887 58.618034 35.1957739 56.763932 37.8244295 56.381966 39 54 40.1755705 56.381966 42.8042261 56.763932 40.902113 58.618034 41.351141 61.236068"></polygon>
                        <polygon id="Star-1-Copy-2" fill="#FFFFFF" transform="translate(48.000000, 55.000000) rotate(5.000000) translate(-48.000000, -55.000000) " points="48 57 45.648859 58.236068 46.097887 55.618034 44.1957739 53.763932 46.8244295 53.381966 48 51 49.1755705 53.381966 51.8042261 53.763932 49.902113 55.618034 50.351141 58.236068"></polygon>
                        <polygon id="Star-1-Copy-3" fill="#FFFFFF" transform="translate(29.000000, 55.000000) rotate(-5.000000) translate(-29.000000, -55.000000) " points="29 57 26.648859 58.236068 27.097887 55.618034 25.1957739 53.763932 27.8244295 53.381966 29 51 30.1755705 53.381966 32.8042261 53.763932 30.902113 55.618034 31.351141 58.236068"></polygon>
                        <polygon id="Star-1-Copy-4" fill="#FFFFFF" transform="translate(22.000000, 48.000000) rotate(-48.000000) translate(-22.000000, -48.000000) " points="22 50 19.648859 51.236068 20.097887 48.618034 18.1957739 46.763932 20.8244295 46.381966 22 44 23.1755705 46.381966 25.8042261 46.763932 23.902113 48.618034 24.351141 51.236068"></polygon>
                        <polygon id="Star-1-Copy-5" fill="#FFFFFF" transform="translate(55.000000, 48.000000) rotate(48.000000) translate(-55.000000, -48.000000) " points="55 50 52.648859 51.236068 53.097887 48.618034 51.1957739 46.763932 53.8244295 46.381966 55 44 56.1755705 46.381966 58.8042261 46.763932 56.902113 48.618034 57.351141 51.236068"></polygon>
                        <polygon id="Star-1-Copy-6" fill="#FFFFFF" transform="translate(58.000000, 39.000000) rotate(55.000000) translate(-58.000000, -39.000000) " points="58 41 55.648859 42.236068 56.097887 39.618034 54.1957739 37.763932 56.8244295 37.381966 58 35 59.1755705 37.381966 61.8042261 37.763932 59.902113 39.618034 60.351141 42.236068"></polygon>
                        <polygon id="Star-1-Copy-7" fill="#FFFFFF" transform="translate(20.000000, 39.000000) rotate(55.000000) translate(-20.000000, -39.000000) " points="20 41 17.648859 42.236068 18.097887 39.618034 16.1957739 37.763932 18.8244295 37.381966 20 35 21.1755705 37.381966 23.8042261 37.763932 21.902113 39.618034 22.351141 42.236068"></polygon>
                        <polygon id="Star-1-Copy-8" fill="#FFFFFF" transform="translate(22.000000, 29.000000) rotate(45.000000) translate(-22.000000, -29.000000) " points="22 31 19.648859 32.236068 20.097887 29.618034 18.1957739 27.763932 20.8244295 27.381966 22 25 23.1755705 27.381966 25.8042261 27.763932 23.902113 29.618034 24.351141 32.236068"></polygon>
                        <polygon id="Star-1-Copy-9" fill="#FFFFFF" transform="translate(56.000000, 29.000000) rotate(-45.000000) translate(-56.000000, -29.000000) " points="56 31 53.648859 32.236068 54.097887 29.618034 52.1957739 27.763932 54.8244295 27.381966 56 25 57.1755705 27.381966 59.8042261 27.763932 57.902113 29.618034 58.351141 32.236068"></polygon>
                        <polygon id="Star-1-Copy-10" fill="#FFFFFF" transform="translate(49.000000, 22.000000) rotate(66.000000) translate(-49.000000, -22.000000) " points="49 24 46.648859 25.236068 47.097887 22.618034 45.1957739 20.763932 47.8244295 20.381966 49 18 50.1755705 20.381966 52.8042261 20.763932 50.902113 22.618034 51.351141 25.236068"></polygon>
                        <polygon id="Star-1-Copy-11" fill="#FFFFFF" transform="translate(29.000000, 22.000000) rotate(-66.000000) translate(-29.000000, -22.000000) " points="29 24 26.648859 25.236068 27.097887 22.618034 25.1957739 20.763932 27.8244295 20.381966 29 18 30.1755705 20.381966 32.8042261 20.763932 30.902113 22.618034 31.351141 25.236068"></polygon>
                    </g>
                </g>
            </g>
        </g>
    </g>
</svg>